<?xml version="1.0" encoding="UTF-8"?>
<svg version="1.1" xmlns="http://www.w3.org/2000/svg" width="1577" height="1146">
<path d="M0 0 C0.77338431 0.00092179 1.54676863 0.00184359 2.34358883 0.00279331 C3.22844967 0.00141865 4.11331051 0.00004398 5.02498531 -0.00137234 C6.49233372 0.00402058 6.49233372 0.00402058 7.98932552 0.00952244 C9.01359646 0.00937641 10.03786739 0.00923038 11.09317684 0.00907993 C14.49665055 0.00977955 17.9000703 0.0175742 21.30353451 0.02539158 C23.65623094 0.02725559 26.00892776 0.02867957 28.36162472 0.0296793 C34.56769531 0.03350584 40.77374266 0.04333728 46.97980404 0.05438328 C53.30711204 0.06459448 59.63442378 0.06917629 65.96173763 0.0742197 C78.38687807 0.08495942 90.81200124 0.10203747 103.23712826 0.12304783 C103.25682139 0.89883151 103.27651453 1.67461519 103.29680443 2.47390747 C103.77909376 21.46806339 104.26341612 40.4621665 104.7499218 59.4562149 C104.98515742 68.64209104 105.21973844 77.82798297 105.45270443 87.01391697 C105.65607664 95.03288895 105.8607524 103.05182649 106.06690794 111.07072741 C106.1757293 115.30527168 106.28395619 119.53982902 106.39061451 123.77442837 C106.86431543 142.56419705 107.4025368 161.34497461 108.23712826 180.12304783 C114.82248479 166.54561941 121.35234472 152.95038719 127.67462826 139.24804783 C132.10031061 129.65895782 136.6239925 120.12289642 141.23712826 110.62304783 C145.71898504 101.39116667 150.12369948 92.12854803 154.42462826 82.81054783 C162.87539445 64.50889628 171.55349734 46.31510749 180.23712826 28.12304783 C180.76675167 27.01322544 180.76675167 27.01322544 181.30707455 25.8809824 C183.48731438 21.31353589 185.67287123 16.74867926 187.86212826 12.18554783 C188.66940365 10.49836643 188.66940365 10.49836643 189.49298763 8.77710056 C189.97831966 7.76848972 190.4636517 6.75987888 190.96369076 5.72070408 C191.59138363 4.41371555 191.59138363 4.41371555 192.23175716 3.08032322 C193.23712826 1.12304783 193.23712826 1.12304783 194.23712826 0.12304783 C195.61588851 0.02765593 196.99949742 0.00116161 198.3815527 0.00279331 C199.72146519 0.00073132 199.72146519 0.00073132 201.08844662 -0.00137234 C202.07602962 0.00222294 203.06361263 0.00581821 204.0811224 0.00952244 C205.1151469 0.00937641 206.14917141 0.00923038 207.21452999 0.00907993 C210.65046912 0.00977956 214.08635479 0.01757425 217.52228451 0.02539158 C219.89740119 0.02725558 222.27251826 0.02867957 224.64763546 0.0296793 C230.9128897 0.03350586 237.17812093 0.04333732 243.44336605 0.05438328 C249.83099716 0.06459443 256.21863197 0.06917628 262.60626888 0.0742197 C275.14989852 0.08495947 287.69351217 0.10184656 300.23712826 0.12304783 C299.74636499 4.98035979 299.22523525 9.75659178 298.12750912 14.52124119 C297.90373592 15.50422184 297.67996273 16.48720249 297.44940853 17.49997044 C297.20275448 18.56023441 296.95610043 19.62049839 296.70197201 20.71289158 C296.43638485 21.87386356 296.17079769 23.03483555 295.89716244 24.2309885 C295.30894579 26.79987286 294.71894607 29.36827365 294.12601376 31.93606663 C293.1427942 36.19500473 292.16696623 40.45561666 291.19245052 44.71655369 C290.84227674 46.24745277 290.49210279 47.77835182 290.14192867 49.30925083 C289.96346464 50.08953333 289.78500061 50.86981583 289.60112858 51.67374325 C289.03906179 54.13016435 288.47634513 56.58643587 287.9135046 59.04267979 C283.303541 79.1671963 278.75417215 99.30543484 274.19983578 119.44259739 C271.89729728 129.62295088 269.59256739 139.80280832 267.28786755 149.98267269 C266.76935731 152.27293364 266.25086114 154.56319778 265.73237896 156.85346508 C260.24861448 181.0765979 254.76043476 205.29872893 249.26840878 229.51998997 C248.29300428 233.82180304 247.31781198 238.12366412 246.34281063 242.42556858 C245.20689332 247.4374017 244.07054451 252.44913678 242.93384075 257.46079159 C242.51800313 259.29449907 242.10231238 261.12823987 241.68677807 262.96201611 C241.12137361 265.45703073 240.55542242 267.95192071 239.98932552 270.4467783 C239.74261435 271.53632864 239.74261435 271.53632864 239.49091911 272.64789009 C238.7715453 275.815761 238.02508352 278.97122678 237.23712826 282.12304783 C215.45712826 282.12304783 193.67712826 282.12304783 171.23712826 282.12304783 C171.92897379 275.89643806 172.78062005 270.12968413 174.2205267 264.09033298 C174.52188786 262.7980258 174.52188786 262.7980258 174.82933712 261.4796114 C175.49683299 258.62260709 176.1716919 255.7673948 176.84650326 252.91211033 C177.32674904 250.86255243 177.80649331 248.81287696 178.28577328 246.76309299 C179.3120913 242.37771783 180.34150213 237.99308498 181.37335873 233.60900974 C182.99637885 226.71234363 184.61178344 219.81390936 186.22540951 212.91504002 C186.77411543 210.56933686 187.32282149 208.22363374 187.87152767 205.87793064 C188.1450758 204.70844883 188.41862392 203.53896702 188.70046139 202.33404636 C189.53881859 198.75090458 190.37781628 195.16791331 191.21698666 191.58496189 C196.46070876 169.19294744 201.66763939 146.79251043 206.84662533 124.38543797 C208.0001302 119.39547114 209.15723378 114.40634611 210.31515789 109.41740322 C211.17449978 105.71172737 212.0310228 102.00540462 212.88665676 98.29887104 C213.28286186 96.58484919 213.6801622 94.87108009 214.07862759 93.15758228 C214.61889651 90.83328852 215.1551113 88.5080968 215.69025326 86.18261814 C215.84896782 85.50407087 216.00768238 84.82552361 216.17120647 84.1264143 C216.7998211 81.37775199 217.23712826 78.9553979 217.23712826 76.12304783 C211.29332059 87.89772907 205.44183628 99.70898587 199.77570248 111.619874 C195.57817879 120.43438295 191.31912579 129.21825343 187.04962826 137.99804783 C186.31793745 139.50301136 185.586248 141.00797556 184.8545599 142.51294041 C183.74729444 144.79025702 182.63997443 147.06754704 181.53252316 149.34477329 C177.69966385 157.22666334 173.8733881 165.1117399 170.04962826 172.99804783 C169.71863125 173.68066685 169.38763424 174.36328587 169.04660702 175.06659031 C163.86010712 185.7638552 158.68863514 196.46830024 153.52326107 207.1757822 C148.46350017 217.66141447 143.38483682 228.13783128 138.30353451 238.61303806 C131.27097649 253.11133837 124.25394803 267.61712233 117.23712826 282.12304783 C97.10712826 282.12304783 76.97712826 282.12304783 56.23712826 282.12304783 C56.03031429 276.19311863 55.82350033 270.26318943 55.61041927 264.15356541 C54.92638669 244.55183087 54.23939438 224.95020089 53.55088043 205.34862328 C53.1335456 193.46529557 52.71721879 181.58193417 52.30329037 169.69848728 C51.94237839 159.33716067 51.57954923 148.97590324 51.21444744 138.61472338 C51.02131544 133.13197349 50.82912347 127.64919438 50.63922977 122.16633129 C50.4601916 116.99778056 50.27857553 111.82932663 50.09504604 106.66093349 C50.02840174 104.77167244 49.96267115 102.88237888 49.89796162 100.99305058 C49.5555756 91.01236102 49.12526674 81.07292004 48.23712826 71.12304783 C47.95581051 72.41181324 47.67449276 73.70057865 47.38465023 75.02839756 C40.77295697 105.31679961 34.15714651 135.60429899 27.53511715 165.89044285 C27.38574269 166.57361576 27.23636822 167.25678867 27.08246726 167.9606638 C25.86018251 173.55084224 25.86018251 173.55084224 25.28437555 176.18424606 C23.20795744 185.68066112 21.13294094 195.17738159 19.0589056 204.67431736 C16.92067398 214.46486613 14.7798046 224.25483329 12.6352396 234.04399681 C11.54748872 239.0094424 10.46099896 243.97515587 9.37763119 248.94155979 C8.37210343 253.55090961 7.36316266 258.1594981 6.35141087 262.76748562 C5.98474095 264.44036386 5.61934564 266.11352205 5.2553072 267.78697491 C4.76494707 270.04022593 4.2700892 272.29244056 3.77399349 274.54443455 C3.49933758 275.79989079 3.22468166 277.05534702 2.94170284 278.34884739 C2.23712826 281.12304783 2.23712826 281.12304783 1.23712826 282.12304783 C-0.81843836 282.2171847 -2.87727355 282.24047781 -4.93499088 282.23657322 C-5.90081341 282.23679226 -5.90081341 282.23679226 -6.8861475 282.23701572 C-9.02347477 282.23631668 -11.16071587 282.22852474 -13.29802799 282.22070408 C-14.7763346 282.21883987 -16.25464182 282.21741598 -17.73294926 282.21641636 C-21.63085977 282.21259142 -25.52873323 282.20276134 -29.42662907 282.19171238 C-33.40133507 282.18149775 -37.37604703 282.17691863 -41.35076237 282.17187595 C-49.15481574 282.16113905 -56.95883856 282.14406292 -64.76287174 282.12304783 C-64.2577405 274.57922225 -63.12467483 267.42760492 -61.38396549 260.07617283 C-61.14121387 259.02354755 -60.89846226 257.97092228 -60.64835453 256.88639927 C-60.11909013 254.59475278 -59.58656549 252.30385733 -59.05114079 250.01364231 C-58.01641901 245.58588084 -56.99479353 241.15515471 -55.97376728 236.72421837 C-55.82187317 236.06506778 -55.66997906 235.40591719 -55.51348209 234.72679234 C-55.36015919 234.06136354 -55.20683628 233.39593475 -55.04886723 232.71034145 C-54.57446842 230.65297094 -54.0991478 228.59581529 -53.62358952 226.5387125 C-50.3997415 212.58815765 -47.24908961 198.62124789 -44.10820103 184.65182209 C-43.31162788 181.10993565 -42.51399281 177.56828836 -41.71648502 174.02661228 C-39.63293593 164.7726063 -37.5511425 155.51820559 -35.46939182 146.2637949 C-34.14397201 140.37180612 -32.81840242 134.47985103 -31.49285221 128.58789158 C-31.20417522 127.30473529 -30.91549824 126.021579 -30.61807346 124.69953918 C-29.26139745 118.66917719 -27.90470739 112.63881836 -26.54797649 106.60846871 C-25.78317714 103.20911412 -25.01838546 99.8097578 -24.2535944 96.41040134 C-24.10148282 95.73429723 -23.94937124 95.05819311 -23.79265022 94.361601 C-21.967548 86.24936248 -20.14268852 78.13706944 -18.3182413 70.02468359 C-17.01765889 64.24167286 -15.71685226 58.45871257 -14.41598034 52.67576694 C-13.87880712 50.2875828 -13.34171849 47.89937962 -12.80472469 45.51115513 C-11.5863152 40.09247038 -10.36678815 34.67404538 -9.14412785 29.25631809 C-8.19724454 25.05940499 -7.25868594 20.86072823 -6.32473087 16.66092014 C-5.8701617 14.62948575 -5.41554352 12.59806233 -4.96086979 10.56665134 C-4.75316613 9.62517467 -4.54546247 8.68369799 -4.33146477 7.71369171 C-4.13933246 6.85862313 -3.94720015 6.00355455 -3.74924564 5.12257481 C-3.5821292 4.37099378 -3.41501276 3.61941275 -3.24283218 2.84505653 C-2.60649903 0.56201165 -2.39280195 0.16701674 0 0 Z M219.23712826 69.12304783 C220.23712826 71.12304783 220.23712826 71.12304783 220.23712826 71.12304783 Z " fill="#353535" transform="translate(757.7628717422485,856.8769521713257)"/>
<path d="M0 0 C18.46437209 -0.07037603 36.92870892 -0.12312724 55.39318657 -0.15543652 C63.9683877 -0.17084332 72.54350503 -0.19181304 81.11865234 -0.22631836 C88.60098938 -0.25641175 96.08326567 -0.27561983 103.56566155 -0.28226548 C107.52006633 -0.28614433 111.47429749 -0.29512755 115.42864609 -0.31719017 C146.76430778 -0.48503572 174.55196956 1.83533388 198.625 24.25 C202.87206951 28.63502536 205.93811714 33.7488709 209 39 C209.391875 39.65742187 209.78375 40.31484375 210.1875 40.9921875 C221.43401955 61.46436763 221.30441587 88.17619764 215.39794922 110.25 C209.83029728 129.20086922 198.57176728 147.1256991 181 157 C155.97731317 170 155.97731317 170 148 170 C153.58091305 183.74773784 159.1881873 197.48319816 164.875 211.1875 C169.74641014 222.93109223 174.55398148 234.69951171 179.32641602 246.48364258 C181.80769559 252.60940277 184.29594316 258.73165939 186.8203125 264.83984375 C187.24481689 265.86859619 187.66932129 266.89734863 188.10668945 267.95727539 C188.8887359 269.84960929 189.67356224 271.74079765 190.46166992 273.63061523 C190.80045166 274.45118408 191.1392334 275.27175293 191.48828125 276.1171875 C191.92974487 277.17848877 191.92974487 277.17848877 192.38012695 278.26123047 C193 280 193 280 193 282 C167.26 282 141.52 282 115 282 C102.30136026 247.24582809 102.30136026 247.24582809 97.984375 235.41015625 C97.7306588 234.71456163 97.4769426 234.01896702 97.21553802 233.30229378 C95.70324093 229.15597328 94.19121215 225.00955502 92.67935181 220.86307526 C92.04179839 219.11462918 91.40408357 217.36624197 90.76635742 215.61785889 C88.80108937 210.22927198 86.83850647 204.8397347 84.88290405 199.44763184 C84.33765245 197.94551773 83.79129268 196.4438054 83.24380493 194.94250488 C82.50454694 192.91458027 81.76923839 190.88527154 81.03515625 188.85546875 C80.6369165 187.75871826 80.23867676 186.66196777 79.82836914 185.53198242 C79 183 79 183 79 181 C62.83 181 46.66 181 30 181 C29.67 183.97 29.34 186.94 29 190 C28.50640749 192.52382343 27.96917822 195.03949167 27.3894043 197.54492188 C27.22987274 198.24069336 27.07034119 198.93646484 26.90597534 199.65332031 C26.38355133 201.92627462 25.85396506 204.19749218 25.32421875 206.46875 C24.95365207 208.07415927 24.58352798 209.67967076 24.21382141 211.28527832 C23.24171541 215.50146304 22.26346628 219.71619905 21.28393555 223.93066406 C20.30066244 228.16642591 19.3235212 232.40360125 18.34570312 236.640625 C16.5721511 244.31970068 14.79736243 251.99848142 13.00668335 259.67358398 C12.29463604 262.72617425 11.59145067 265.78068191 10.89199829 268.83618164 C10.53069242 270.40187234 10.16931568 271.96754669 9.80786133 273.53320312 C9.64116534 274.26808708 9.47446936 275.00297104 9.30272198 275.76012421 C8.11315813 280.88684187 8.11315813 280.88684187 7 282 C4.82194281 282.09429342 2.6407872 282.11742538 0.46069336 282.11352539 C-0.22220261 282.11367142 -0.90509857 282.11381744 -1.60868835 282.1139679 C-3.87587614 282.11326876 -6.14298274 282.1054764 -8.41015625 282.09765625 C-9.97814387 282.09579207 -11.54613207 282.09436817 -13.11412048 282.09336853 C-17.24876503 282.08954334 -21.38337466 282.07971306 -25.51800537 282.06866455 C-29.73400398 282.05845044 -33.95000822 282.05387091 -38.16601562 282.04882812 C-46.44402647 282.03809079 -54.7220089 282.02101436 -63 282 C-62.37838686 272.84548803 -60.36540798 264.12950985 -58.29296875 255.22265625 C-57.89997399 253.51251968 -57.50756159 251.80224919 -57.11567688 250.09185791 C-56.26385812 246.37916525 -55.40828306 242.66736565 -54.54980469 238.95620728 C-53.16110302 232.95229 -51.78092747 226.94643305 -50.40234375 220.94018555 C-49.91746474 218.82801479 -49.43257072 216.71584749 -48.94766235 214.60368347 C-48.70228352 213.5348461 -48.45690468 212.46600872 -48.20409012 211.36478233 C-47.43806646 208.0295687 -46.67120965 204.69454756 -45.90414429 201.35957336 C-41.85711706 183.76056476 -37.83849273 166.15515316 -33.83203125 148.546875 C-33.68026483 147.87989365 -33.52849842 147.21291231 -33.37213302 146.5257194 C-31.53181067 138.43769997 -29.69223889 130.34950992 -27.85291368 122.26126367 C-25.40076425 111.47849107 -22.94678075 100.69613574 -20.49277306 89.91378593 C-19.93828832 87.47749773 -19.38382563 85.0412045 -18.82938576 82.60490608 C-12.56252502 55.06774724 -6.28247107 27.53360108 0 0 Z M60 52 C56.34667539 65.17383773 53.23726434 78.46767074 50.14404297 91.78271484 C49.54368284 94.36285348 48.94118728 96.94235804 48.33447266 99.52099609 C47.45186373 103.27575957 46.57656034 107.03215582 45.703125 110.7890625 C45.43131409 111.9411319 45.15950317 113.09320129 44.87945557 114.28018188 C44.50841705 115.8887355 44.50841705 115.8887355 44.12988281 117.52978516 C43.91100403 118.46827301 43.69212524 119.40676086 43.46661377 120.37368774 C43.0043026 122.97578303 42.91372788 125.36348085 43 128 C51.80646465 128.06984104 60.61283239 128.12298301 69.41951466 128.15543652 C73.50983857 128.17102101 77.5999715 128.19212543 81.69018555 128.22631836 C85.64540646 128.25917182 89.60044491 128.27690712 93.55579185 128.28463173 C95.05670731 128.29012903 96.55761399 128.30086243 98.0584507 128.31719017 C111.99298179 128.46260793 124.20365033 126.80152441 134.96875 117.25390625 C144.82350583 106.85886776 148.53185141 94.36104857 148.234375 80.39453125 C147.5535951 70.53456906 143.27789391 64.6108529 136 58 C126.80168526 51.26908329 114.32976931 51.71037518 103.45703125 51.8046875 C101.58261604 51.80893234 101.58261604 51.80893234 99.67033386 51.81326294 C96.38734978 51.82248816 93.1045715 51.84037912 89.82165527 51.8626709 C86.45599859 51.88332412 83.09031149 51.8923058 79.72460938 51.90234375 C73.14966079 51.9242784 66.57484718 51.95766061 60 52 Z " fill="#353535" transform="translate(63,857)"/>
<path d="M0 0 C20.79 0 41.58 0 63 0 C55.53512798 33.33568571 47.99486397 66.65276164 40.38635635 99.95588684 C37.82366166 111.17464892 35.26357105 122.3940058 32.703125 133.61328125 C32.41938837 134.8564146 32.13565174 136.09954796 31.84331703 137.38035202 C27.92291378 154.5574973 24.01083723 171.73651152 20.109375 188.91796875 C19.88029387 189.92669603 19.65121273 190.93542332 19.41518974 191.97471809 C17.47236599 200.52993622 15.52986267 209.08522686 13.59011841 217.6411438 C11.06866392 228.76272827 8.54160806 239.88300231 6 251 C5.74325123 252.12379562 5.74325123 252.12379562 5.48131561 253.27029419 C4.48413959 257.63275474 3.48267457 261.99418985 2.4746151 266.35414886 C2.0233296 268.30907784 1.5754396 270.26478967 1.12763977 272.22052002 C0.86081894 273.3694574 0.59399811 274.51839478 0.3190918 275.70214844 C0.08715622 276.70711365 -0.14477936 277.71207886 -0.38374329 278.74749756 C-1 281 -1 281 -2 282 C-3.93306498 282.09396057 -5.86958838 282.11743517 -7.80493164 282.11352539 C-9.04614273 282.11344986 -10.28735382 282.11337433 -11.56617737 282.11329651 C-12.9308374 282.10818911 -14.29549702 282.1029731 -15.66015625 282.09765625 C-17.04878183 282.095792 -18.43740807 282.09436813 -19.82603455 282.09336853 C-23.48721115 282.08954387 -27.1483483 282.07971403 -30.80950928 282.06866455 C-34.54292263 282.05844932 -38.27634234 282.05387067 -42.00976562 282.04882812 C-49.33986385 282.0380917 -56.66992138 282.02049534 -64 282 C-63.01 276.06 -63.01 276.06 -62 270 C-63.30710937 270.88751953 -63.30710937 270.88751953 -64.640625 271.79296875 C-84.26360757 284.90084375 -106.6667853 291.2880111 -130.30078125 287.38671875 C-148.41817326 283.70791674 -164.64370422 272.18923381 -175 257 C-185.33078652 239.70427861 -189.41069899 221.44266514 -189.3125 201.375 C-189.30686035 200.15224365 -189.3012207 198.9294873 -189.29541016 197.66967773 C-188.79950827 160.33710379 -174.78943442 123.72279735 -148.2109375 97.21875 C-128.78974068 79.05582791 -103.70951951 68.14830142 -76.828125 68.81640625 C-54.21123358 70.28462986 -37.95148482 78.00696404 -22 94 C-21.73913101 92.85185822 -21.47826202 91.70371643 -21.20948792 90.52078247 C-18.7548959 79.71913888 -16.29760025 68.9181135 -13.83763218 58.11769295 C-12.57292153 52.56461206 -11.30917616 47.01131512 -10.04760742 41.45751953 C-8.83088931 36.10133176 -7.61167408 30.74571812 -6.39069939 25.39049911 C-5.92450256 23.34370189 -5.45921749 21.29669678 -4.99484444 19.24948502 C-4.34603674 16.3898945 -3.69403871 13.53104945 -3.04125977 10.67236328 C-2.84848953 9.81928589 -2.6557193 8.9662085 -2.45710754 8.08728027 C-1.11405216 2.22810432 -1.11405216 2.22810432 0 0 Z M-104.19921875 133.84765625 C-120.97073197 153.89343452 -128.64515717 180.6137978 -126.65649414 206.57641602 C-125.57663107 217.29438804 -122.20359526 227.19742531 -113.96875 234.6015625 C-106.13347219 240.16709713 -96.91173656 241.74723292 -87.5078125 240.55859375 C-73.30913781 237.88680013 -61.86362444 230.49789049 -53.49609375 218.52734375 C-40.72046469 196.94553695 -33.89190059 171.03925035 -37.4296875 145.953125 C-39.95888503 136.1485815 -45.78883656 127.79512238 -54.30859375 122.37109375 C-71.79892869 113.46092312 -91.2963207 119.92962336 -104.19921875 133.84765625 Z " fill="#353535" transform="translate(1448,857)"/>
<path d="M0 0 C0.67756348 0.16628906 1.35512695 0.33257813 2.05322266 0.50390625 C22.96310374 5.85651861 42.08943773 18.50992442 53.34057617 37.25585938 C61.43127579 51.38641806 66.18187282 66.38057678 66.1328125 82.76953125 C66.13376923 83.49057541 66.13472595 84.21161957 66.13571167 84.95451355 C66.13638809 86.47138558 66.1345716 87.98826059 66.13037109 89.50512695 C66.12503887 91.7958038 66.13032229 94.08628247 66.13671875 96.37695312 C66.13605742 97.86197959 66.13477511 99.34700593 66.1328125 100.83203125 C66.13483673 101.50216751 66.13686096 102.17230377 66.13894653 102.86274719 C66.11263594 108.34959775 65.55350702 113.4649298 65 119 C15.5 119 -34 119 -85 119 C-83.84412543 140.52995581 -83.84412543 140.52995581 -72.4375 157.5625 C-62.31846488 166.10872629 -50.95144614 167.76188947 -38.11328125 167.18359375 C-24.1630965 165.97165533 -12.37058661 159.09495762 -3 149 C-0.43705665 145.45306948 1.84955425 141.80956449 4 138 C7.59984883 138.59890795 10.56565295 139.57488668 13.8515625 141.15234375 C14.77686768 141.59465332 15.70217285 142.03696289 16.65551758 142.49267578 C17.63544678 142.96946777 18.61537598 143.44625977 19.625 143.9375 C20.63522217 144.42460449 21.64544434 144.91170898 22.6862793 145.41357422 C31.69610319 149.78818025 40.57329752 154.39980931 49.39379883 159.14306641 C50.58671321 159.779505 51.79067 160.395335 53 161 C45.71054043 181.50868676 26.01989259 197.02231614 7.18188477 206.30029297 C-8.59323358 213.65176758 -25.25114784 216.36767103 -42.55273438 216.31567383 C-44.73358722 216.31252371 -46.91306443 216.33603414 -49.09375 216.36132812 C-62.31014427 216.4222915 -75.13633238 214.64816504 -87.5625 209.9375 C-88.35350098 209.63859863 -89.14450195 209.33969727 -89.95947266 209.03173828 C-112.91082725 199.90383081 -129.03292525 181.52254447 -138.67578125 159.18798828 C-149.77991408 131.79118437 -148.78903853 99.31579305 -138 72 C-135.61576889 66.5182174 -132.84526309 61.25311796 -130 56 C-129.44441406 54.93910156 -128.88882812 53.87820313 -128.31640625 52.78515625 C-123.85326088 44.64018353 -118.22842897 37.82862703 -112 31 C-111.18402344 30.10023438 -110.36804687 29.20046875 -109.52734375 28.2734375 C-82.26327897 -0.36491347 -37.63785298 -9.28833098 0 0 Z M-58 52 C-58.99 52.66 -59.98 53.32 -61 54 C-61 54.66 -61 55.32 -61 56 C-61.66 56 -62.32 56 -63 56 C-67.86884942 61.65345429 -76 71.12035076 -76 79 C-47.62 79 -19.24 79 10 79 C10 67.50394746 8.66075164 61.02950542 0.77734375 52.74609375 C-7.45902096 44.65454424 -16.46763586 40.96139365 -28 40.6875 C-39.87955627 40.82173227 -48.77101881 44.7664742 -58 52 Z " fill="#353535" transform="translate(1181,929)"/>
<path d="M0 0 C18.07053088 15.95802016 28.70252483 37.18353184 30.3828125 61.36328125 C30.50834044 65.30376712 30.61397263 69.24126414 30.66015625 73.18359375 C30.67997559 74.25843018 30.67997559 74.25843018 30.70019531 75.35498047 C30.71153849 84.12892783 29.45969843 92.30021414 28.47265625 101.18359375 C-21.02734375 101.18359375 -70.52734375 101.18359375 -121.52734375 101.18359375 C-119.92553788 124.81449115 -119.92553788 124.81449115 -106.52734375 142.18359375 C-93.94561663 149.50928575 -80.33110409 151.2511399 -66.15234375 147.99609375 C-51.53539334 143.7097718 -41.50510256 135.08950939 -33.52734375 122.18359375 C-33.19734375 121.52359375 -32.86734375 120.86359375 -32.52734375 120.18359375 C-27.67316756 120.72375772 -24.32427772 122.15989705 -20.08984375 124.55859375 C-10.58670735 129.82608866 -0.75451989 134.38875267 9.06298828 139.03369141 C11.88565907 140.3806802 14.68385196 141.76802867 17.47265625 143.18359375 C6.23518418 166.07255001 -13.70028425 183.48728945 -37.65576172 191.93408203 C-51.83302911 196.63020263 -65.58276779 198.59901108 -80.52734375 198.55859375 C-81.25078979 198.55838226 -81.97423584 198.55817078 -82.71960449 198.55795288 C-109.51972973 198.47997248 -135.04414532 191.66675459 -154.4921875 172.37109375 C-167.16301811 159.2801693 -175.09893617 143.87379333 -179.52734375 126.18359375 C-179.84638672 124.92482422 -179.84638672 124.92482422 -180.171875 123.640625 C-187.0429426 91.75689404 -179.32316961 58.68445147 -162.52734375 31.18359375 C-158.06644069 24.49223917 -152.9676881 18.39650515 -147.58984375 12.43359375 C-147.11699951 11.90741455 -146.64415527 11.38123535 -146.15698242 10.83911133 C-144.99049671 9.57900174 -143.76352932 8.37540343 -142.52734375 7.18359375 C-141.86734375 7.18359375 -141.20734375 7.18359375 -140.52734375 7.18359375 C-140.52734375 6.52359375 -140.52734375 5.86359375 -140.52734375 5.18359375 C-127.1392527 -6.39213563 -111.69698015 -13.78527423 -94.52734375 -17.81640625 C-93.62371094 -18.02910156 -92.72007812 -18.24179687 -91.7890625 -18.4609375 C-60.77332423 -25.1657394 -24.88009803 -20.85827553 0 0 Z M-101.52734375 41.18359375 C-106.31137952 47.52266983 -109.27485737 53.8654994 -112.52734375 61.18359375 C-83.81734375 61.18359375 -55.10734375 61.18359375 -25.52734375 61.18359375 C-26.53465229 49.09589126 -27.9059374 41.17544219 -36.71484375 32.74609375 C-57.83712657 15.59094019 -84.18785805 22.62014435 -101.52734375 41.18359375 Z " fill="#353535" transform="translate(455.52734375,946.81640625)"/>
<path d="M0 0 C1.64582629 1.39241706 3.27018942 2.81050271 4.875 4.25 C5.78121094 5.06210937 6.68742188 5.87421875 7.62109375 6.7109375 C14.71948703 13.42536776 20.16455873 20.7014214 24.875 29.25 C24.875 29.91 24.875 30.57 24.875 31.25 C17.99604343 34.71866827 11.10711556 38.16679961 4.20751953 41.59423828 C2.05103093 42.66568925 -0.10432129 43.73943173 -2.25830078 44.81591797 C-5.12449868 46.24411145 -7.99825198 47.65570348 -10.875 49.0625 C-11.74858154 49.50062012 -12.62216309 49.93874023 -13.5222168 50.39013672 C-14.334729 50.78346191 -15.14724121 51.17678711 -15.984375 51.58203125 C-17.04350098 52.10373901 -17.04350098 52.10373901 -18.12402344 52.63598633 C-20.55742812 53.3826936 -21.7737291 53.17623014 -24.125 52.25 C-25.984375 50.2109375 -25.984375 50.2109375 -27.875 47.625 C-37.00389461 35.83981562 -48.27524486 29.44371383 -63.125 27.25 C-73.68477439 26.32601974 -85.00387797 25.9483717 -93.8984375 32.5703125 C-96.54731265 35.24845699 -97.42687932 37.72680369 -97.5625 41.375 C-97.11091462 45.6626757 -97.11091462 45.6626757 -95.125 49.25 C-86.42832137 54.93738956 -76.6153743 57.90140708 -66.67984009 60.59405518 C-62.93309481 61.61407798 -59.20252251 62.68965332 -55.47265625 63.76953125 C-54.74356552 63.98055481 -54.01447479 64.19157837 -53.26329041 64.40899658 C-44.27600929 67.04200183 -35.62971442 70.33322339 -27.125 74.25 C-26.43970215 74.56114746 -25.7544043 74.87229492 -25.04833984 75.19287109 C-12.39582484 81.05652765 -0.58772276 89.51715218 5.875 102.25 C6.28492188 103.04792969 6.69484375 103.84585937 7.1171875 104.66796875 C12.3791065 117.2421407 11.91381538 134.77237868 7.12890625 147.4765625 C-2.2930505 168.31640453 -17.91239272 182.88244514 -39.125 191.25 C-49.50712143 194.98550785 -60.14515601 197.98813733 -71.125 199.25 C-71.92679688 199.35957031 -72.72859375 199.46914062 -73.5546875 199.58203125 C-104.42721907 203.18863541 -137.54607257 198.4411761 -163.25 180.125 C-172.89452378 172.47498998 -181.79144959 163.95416031 -188.5625 153.625 C-188.94623779 153.04532471 -189.32997559 152.46564941 -189.7253418 151.8684082 C-191.0677851 149.68858337 -192.11153419 147.90366667 -192.16503906 145.30639648 C-190.4577524 141.930698 -187.15931895 140.90132605 -183.86328125 139.38671875 C-183.12103806 139.03164749 -182.37879486 138.67657623 -181.61405945 138.31074524 C-179.22802098 137.17281146 -176.83326647 136.05478544 -174.4375 134.9375 C-172.09830319 133.83027533 -169.76102862 132.71906352 -167.42379761 131.60769653 C-165.88716595 130.87880571 -164.34901958 130.15309938 -162.80935669 129.43063354 C-159.1613095 127.71568103 -155.54061071 125.96864474 -151.96240234 124.11181641 C-151.31917526 123.77954544 -150.67594818 123.44727448 -150.01322937 123.10493469 C-148.28324986 122.20453165 -146.5597114 121.29178358 -144.83666992 120.37817383 C-142.125 119.25 -142.125 119.25 -139.125 120.25 C-137.6171875 122.47265625 -137.6171875 122.47265625 -136 125.3125 C-128.49669978 137.40550162 -116.91574974 144.41715537 -103.15234375 147.71484375 C-89.09084159 150.20055446 -72.43867331 150.53804934 -60.125 142.25 C-57.28122434 138.82288574 -55.23514504 135.76594658 -55.125 131.25 C-56.9177769 124.67648471 -60.36052426 121.69439757 -66.125 118.25 C-70.20687284 116.50429114 -74.38556291 115.1835917 -78.625 113.875 C-81.0377674 113.09898005 -83.45052767 112.32293794 -85.86328125 111.546875 C-87.07580566 111.16337891 -88.28833008 110.77988281 -89.53759766 110.38476562 C-130.03845429 97.57355141 -130.03845429 97.57355141 -143.125 87.25 C-144.176875 86.486875 -145.22875 85.72375 -146.3125 84.9375 C-155.85184122 75.8221295 -162.70487824 62.48542239 -163.4609375 49.20703125 C-163.83645232 32.12110715 -158.67521867 18.22034268 -146.99023438 5.47705078 C-140.53195517 -1.1949526 -133.42698032 -5.68894007 -125.125 -9.75 C-124.14917969 -10.23082031 -123.17335938 -10.71164062 -122.16796875 -11.20703125 C-86.06171738 -27.55609993 -31.83559965 -24.45053892 0 0 Z " fill="#353535" transform="translate(673.125,945.75)"/>
<path d="M0 0 C11.7360359 9.82390295 18.49190095 22.19397525 21.69140625 37.125 C22.95939472 54.87683862 19.84439879 71.49301753 8.18066406 85.46655273 C-2.70622521 97.70358772 -17.30401181 104.81915495 -33.64453125 105.8515625 C-50.7553386 106.23964267 -66.40570067 101.52108452 -79.05859375 89.625 C-91.292589 76.67003265 -96.60950306 61.73965475 -96.47607422 44.17749023 C-95.95266425 26.60046175 -88.29594777 12.84071006 -75.71484375 0.93359375 C-69.14305085 -4.77806743 -62.34359074 -7.78070801 -54.05859375 -10.375 C-53.34058594 -10.60316406 -52.62257812 -10.83132813 -51.8828125 -11.06640625 C-34.12125372 -15.84965089 -14.31186102 -11.11316922 0 0 Z " fill="#009BDF" transform="translate(96.05859375,316.375)"/>
<path d="M0 0 C11.00448083 10.67986488 16.30688062 24.10788039 16.5625 39.3125 C16.4677507 54.03837453 11.11608313 66.70782235 1.1640625 77.55859375 C-12.1355521 89.81360261 -27.0598446 92.22901664 -44.35400391 91.61669922 C-55.76295315 90.80572026 -66.69953986 84.17786308 -74.875 76.4375 C-86.14763907 62.68415072 -89.86856301 49.10485674 -88.875 31.4375 C-86.66708417 17.77276106 -79.36422308 5.07813724 -68.28173828 -3.26147461 C-47.01135784 -18.3601222 -19.82782895 -16.64660052 0 0 Z " fill="#008FD5" transform="translate(168.875,206.5625)"/>
<path d="M0 0 C10.48456395 8.55807163 17.35511949 21.28410702 19.15625 34.63671875 C20.27160388 51.14793953 15.76411652 64.48164853 5.75 77.5 C-3.21131103 87.37144419 -16.53637845 93.22005828 -29.75390625 94.078125 C-46.47071461 94.30634081 -60.44623778 89.56169102 -72.625 77.875 C-82.71410495 66.05857747 -87.12535849 52.74322072 -86.5 37.3125 C-85.31042295 23.91266661 -79.28208245 10.44612864 -68.92578125 1.55859375 C-47.65518233 -14.42911132 -22.17390156 -15.84391599 0 0 Z " fill="#ED1B2F" transform="translate(1557.625,420.125)"/>
<path d="M0 0 C9.40181967 7.94460768 16.17075821 18.56433307 17.59863281 31.01074219 C18.66175531 45.40635689 15.78424575 57.76730749 6.37109375 69.02734375 C-2.14137164 78.86867817 -12.52737144 84.13344301 -25.56640625 85.4140625 C-39.07951188 86.00449632 -50.95746723 82.45128781 -61.62890625 74.02734375 C-71.82124651 64.65387527 -76.68051522 52.97044952 -77.5859375 39.26953125 C-77.77565714 24.95432211 -72.82805638 13.53072428 -62.99609375 3.21875 C-59.48305132 -0.03342294 -55.76710825 -2.58645165 -51.62890625 -4.97265625 C-50.70078125 -5.55015625 -49.77265625 -6.12765625 -48.81640625 -6.72265625 C-32.64619649 -13.06391498 -13.83191479 -10.37907425 0 0 Z " fill="#0083CA" transform="translate(246.62890625,112.97265625)"/>
<path d="M0 0 C8.85628746 6.76821969 14.95837518 14.37634135 18.75 24.875 C18.99492188 25.52855469 19.23984375 26.18210937 19.4921875 26.85546875 C22.92796537 37.89231685 21.40684261 51.25103723 16.4609375 61.5625 C8.70930627 75.15894407 -0.50732782 82.02298131 -15.25 86.875 C-27.10894906 89.70276729 -39.93811137 87.58326306 -50.5625 81.75 C-62.49905137 74.11505158 -70.5280864 63.55713636 -73.6875 49.625 C-75.7433956 35.59922338 -72.89966877 22.08456404 -64.53515625 10.5 C-48.99326854 -8.31553686 -20.71561967 -13.50185997 0 0 Z " fill="#E31E36" transform="translate(1466.25,515.125)"/>
<path d="M0 0 C0.99 0.78375 1.98 1.5675 3 2.375 C3.77214844 2.95765625 4.54429687 3.5403125 5.33984375 4.140625 C13.42814723 10.70857069 19.61100163 19.80227124 21 30.375 C21.78879173 43.6479377 20.18335718 54.53291497 12 65.375 C4.36188221 73.79032977 -5.16761299 79.86888177 -16.6875 80.61328125 C-30.20187523 80.96371214 -40.8324928 78.93519945 -51 69.375 C-59.13672956 61.61634071 -64.00012271 51.87208951 -64.29272461 40.58789062 C-64.42073035 26.26389013 -60.88380641 16.59584646 -50.8984375 6.18359375 C-45.78928871 1.28206055 -40.75801123 -1.55907947 -34 -3.625 C-33.41089844 -3.81707031 -32.82179688 -4.00914063 -32.21484375 -4.20703125 C-21.41161999 -6.24573485 -9.67156145 -5.23876245 0 0 Z " fill="#0077C0" transform="translate(332,42.625)"/>
<path d="M0 0 C9.28975538 8.63784273 13.77730012 19.86354619 14.40625 32.46875 C13.19264677 45.21158395 8.727294 56.74843939 -0.96875 65.40625 C-12.88508232 73.64230009 -23.79908556 75.67580518 -37.96875 74.40625 C-48.68095798 72.26637113 -58.11490033 65.74943323 -64.43359375 56.90625 C-71.11019767 46.03340902 -73.64728486 34.60380073 -70.78125 22.03125 C-67.33018652 10.43567672 -60.80935747 0.45259844 -50.0078125 -5.63671875 C-32.81953393 -13.70401425 -14.84993729 -12.02137781 0 0 Z " fill="#DA1F3D" transform="translate(1374.96875,594.59375)"/>
<path d="M0 0 C0.825 0.66 1.65 1.32 2.5 2 C3.325 2.556875 4.15 3.11375 5 3.6875 C12.80241859 10.90473719 16.48890669 19.64375497 16.90209961 30.13720703 C17.07790955 41.25082009 14.80216381 50.35270076 7.5 59 C6.84 59 6.18 59 5.5 59 C5.5 59.66 5.5 60.32 5.5 61 C-2.49891894 68.23416442 -13.99966711 71.8837369 -24.6875 71.37109375 C-35.62276235 69.92824663 -43.85919627 66.02910687 -51.5 58 C-58.23588431 49.00529505 -61.13388993 39.42838828 -60.2890625 28.1953125 C-58.68321836 17.49978456 -53.84754406 8.26684673 -45.50390625 1.34375 C-32.28506123 -8.26995547 -13.89563303 -9.00179826 0 0 Z " fill="#D12244" transform="translate(1267.5,634)"/>
<path d="M0 0 C8.59567374 7.22467918 13.51356647 16.05039376 14.5625 27.1953125 C14.98171512 39.11674239 12.3243978 48.60247717 4.453125 57.68359375 C-3.81755317 65.91027895 -12.71896477 69.13456786 -24.1875 69.3125 C-31.09373327 69.25794367 -36.68410572 68.38903531 -42.75 64.875 C-43.60078125 64.400625 -44.4515625 63.92625 -45.328125 63.4375 C-53.81758805 58.15064876 -58.77904824 50.8322935 -61.6875 41.3125 C-64.20529345 30.1870002 -62.60789246 20.22239201 -57.27734375 10.0703125 C-52.1930179 2.16136118 -44.64282703 -4.08585289 -35.48828125 -6.6875 C-22.63303478 -8.74140529 -10.81063906 -7.67265155 0 0 Z " fill="#006DB7" transform="translate(434.75,10.125)"/>
<path d="M0 0 C7.51602523 5.91722162 12.20808777 14.38196871 13.90625 23.71484375 C15.01269644 33.12646839 12.5962416 40.71914506 8.15625 48.96484375 C2.14028586 56.31768881 -4.48064302 60.6800416 -13.53125 63.46484375 C-24.61643217 64.54632494 -33.85369951 63.03256509 -43.05859375 56.44140625 C-46.41545317 53.59355239 -48.80539999 50.45688724 -51.09375 46.71484375 C-51.50753906 46.08320312 -51.92132813 45.4515625 -52.34765625 44.80078125 C-56.77318343 36.81324438 -56.24006833 26.48439295 -54.50390625 17.74609375 C-51.52000359 9.05564915 -44.93966398 1.85738564 -36.84375 -2.34765625 C-25.23795238 -7.67646202 -10.86196889 -6.66714135 0 0 Z " fill="#2062AF" transform="translate(531.09375,5.28515625)"/>
<path d="M0 0 C7.62657561 5.69467815 12.44976234 13.429838 14.359375 22.76171875 C15.37188607 33.86039774 12.38926705 43.14389814 5.359375 51.76171875 C-0.47955736 58.04872266 -8.4757188 62.24961792 -17.0859375 62.96484375 C-28.36585551 63.1621601 -37.12354058 60.36678377 -45.640625 52.76171875 C-48.04840645 49.93827819 -49.90369107 47.03495068 -51.640625 43.76171875 C-51.97964844 43.15972656 -52.31867188 42.55773437 -52.66796875 41.9375 C-56.16797873 34.50199492 -55.73275022 25.24629092 -53.83203125 17.44140625 C-50.5889888 8.6661149 -44.86972787 1.78013919 -36.578125 -2.67578125 C-23.9966822 -8.13189209 -11.57686819 -7.42429591 0 0 Z " fill="#C9234A" transform="translate(1166.640625,644.23828125)"/>
<path d="M0 0 C6.90335811 4.64536023 11.22385561 10.60192817 14.3125 18.25 C16.18819157 28.4810449 15.28948832 36.91029677 10 46 C4.63174048 53.14211918 -2.28873898 57.20056964 -11 59 C-20.13540101 59.833405 -28.20683217 58.29479172 -35.75 52.9375 C-41.16973144 48.42105713 -45.79965436 42.08591136 -47 35 C-47.77915373 24.14293988 -47.13740325 15.06557748 -40.3125 6.1875 C-29.6433093 -5.26499837 -13.56557254 -6.9783446 0 0 Z " fill="#C02550" transform="translate(1074,618)"/>
<path d="M0 0 C7.27356335 5.95978344 11.11486295 13.4905546 12.375 22.7578125 C12.77296692 31.48821175 10.37368305 39.47489413 4.875 46.3125 C-0.64944151 52.11137381 -7.62166672 56.59526291 -15.69921875 57.203125 C-26.35089691 57.37021015 -34.07801711 55.33702635 -42 48 C-48.22072182 41.70890802 -50.78128445 34.16048794 -51.09375 25.359375 C-50.4671673 15.39671011 -46.82194937 7.66238051 -39.46875 0.91796875 C-28.09287093 -7.9199373 -12.02264794 -7.53842977 0 0 Z " fill="#4156A6" transform="translate(618,36)"/>
<path d="M0 0 C5.96197293 5.03882874 9.30828685 12.05919181 10.3828125 19.734375 C10.73485576 28.04259603 8.41029027 35.18937672 3.375 41.8125 C-2.50022879 48.04112601 -9.98198502 50.66727111 -18.3984375 51.0703125 C-25.8334922 50.86936508 -32.47306985 48.35167896 -37.88671875 43.20703125 C-45.16752234 35.3156781 -46.58375658 29.35280261 -46.3515625 18.671875 C-45.62395669 11.07243656 -42.81418879 5.9633319 -37 1 C-36.175 0.278125 -35.35 -0.44375 -34.5 -1.1875 C-24.08116162 -8.74115782 -10.22791911 -6.92047251 0 0 Z " fill="#55489D" transform="translate(688,88)"/>
<path d="M0 0 C6.86192922 3.70775913 10.11315015 8.99972531 13.39453125 15.875 C15.23071535 24.55514303 14.87635815 32.53044678 10.08203125 40.125 C5.22759751 47.01952488 -0.01019278 50.48907468 -7.91796875 53.125 C-17.42412955 54.20555641 -25.02458569 52.71841455 -32.91796875 47.125 C-33.41296875 45.64 -33.41296875 45.64 -33.91796875 44.125 C-34.57796875 44.125 -35.23796875 44.125 -35.91796875 44.125 C-36.73364049 42.68929734 -37.54538968 41.25136566 -38.35546875 39.8125 C-39.03416016 38.61173828 -39.03416016 38.61173828 -39.7265625 37.38671875 C-43.15047612 30.88689584 -43.05869801 22.42753317 -41.19921875 15.4140625 C-37.48522732 6.63826016 -32.12978362 2.01760391 -23.5859375 -1.9609375 C-15.81061013 -4.62481247 -7.3207889 -3.40611826 0 0 Z " fill="#B72755" transform="translate(1000.91796875,571.875)"/>
<path d="M0 0 C6.69037141 3.44179757 11.67361817 9.1458545 14.0625 16.3125 C14.88771963 25.37812713 14.50029724 32.78544381 9.0625 40.3125 C3.92994288 46.15007871 -3.09017805 48.69431841 -10.67578125 49.3125 C-17.0355149 49.3125 -22.86061497 47.09844116 -27.9375 43.3125 C-33.52722372 37.59573711 -36.52997305 31.32719662 -36.9375 23.3125 C-36.36629993 15.84964696 -33.95054301 9.90925349 -28.9375 4.3125 C-26.6417635 2.52748902 -24.63062992 1.53664996 -21.9375 0.3125 C-21.16019531 -0.04199219 -20.38289062 -0.39648438 -19.58203125 -0.76171875 C-13.28188 -2.96723699 -6.13617757 -2.53875353 0 0 Z " fill="#643695" transform="translate(735.9375,145.6875)"/>
<path d="M0 0 C6.65555556 4.37793716 10.38584965 10.2158731 12 18 C12.9235574 25.78210664 11.1860598 32.79660923 6.421875 39.08203125 C1.08549615 44.79099511 -4.91909308 47.38640201 -12.67578125 47.9921875 C-20.60033442 48.01882465 -26.28559565 45.43991331 -32 40 C-36.67919641 34.82200601 -38.66498468 29.61816544 -39.3125 22.625 C-38.66738619 15.14167981 -36.1257777 8.56016564 -31 3 C-22.08018556 -4.02198158 -10.11123013 -5.6768559 0 0 Z " fill="#AE275F" transform="translate(945,516)"/>
<path d="M0 0 C5.93596736 3.48522565 10.00581911 8.48078621 11.8828125 15.10546875 C12.7823684 23.67025451 11.4976239 30.01791109 6.0703125 36.85546875 C1.33316023 42.02116536 -3.6562972 43.68575218 -10.53515625 44.16015625 C-17.92213024 44.00369992 -22.96650856 40.90514213 -28.390625 36.1171875 C-33.37967451 30.3041547 -33.64372275 24.90414056 -33.46484375 17.5234375 C-32.82333338 11.21645351 -30.73063502 7.71891627 -26.3046875 3.29296875 C-18.07282036 -2.35635184 -9.35493346 -4.03360491 0 0 Z " fill="#6F2C91" transform="translate(779.1171875,209.89453125)"/>
<path d="M0 0 C5.53300597 3.2601114 10.27440399 7.91301714 12.1171875 14.20703125 C13.62535629 21.33775911 12.57328887 26.7145005 9.0390625 33.08203125 C5.53957841 38.36828897 1.03679303 41.0921197 -5.01171875 42.87109375 C-11.50409273 44.05247581 -17.87089158 42.88235612 -23.6171875 39.671875 C-29.03260568 35.62774297 -32.40594532 29.96029684 -33.4375 23.3125 C-33.62603719 16.13630307 -32.03744549 10.8496998 -27.4375 5.3125 C-20.21452197 -2.1379734 -9.60046804 -4.50820457 0 0 Z " fill="#A52868" transform="translate(898.4375,455.6875)"/>
<path d="M0 0 C5.03929609 3.68755358 8.53257084 8.1508713 9.8203125 14.33203125 C10.33717112 19.91410435 9.42839291 24.41600666 6.8203125 29.33203125 C2.80017417 33.9706524 -1.28765921 37.94848727 -7.59765625 38.5703125 C-14.04069788 38.74297511 -18.91015987 38.23627217 -24.1796875 34.33203125 C-28.04036243 30.64863221 -30.87940494 26.72164827 -31.55078125 21.37890625 C-31.69971549 13.98475913 -31.2296086 8.93536836 -26.1796875 3.33203125 C-18.78981565 -3.688347 -8.9618688 -5.13402605 0 0 Z " fill="#822A85" transform="translate(813.1796875,274.66796875)"/>
<path d="M0 0 C5.82720805 5.17593186 8.60915558 10.0264151 9.375 17.8125 C9.20637143 23.31400711 7.25649094 28.51423992 3.5390625 32.609375 C-2.44966403 37.7773116 -7.04571813 38.4514485 -14.80078125 38.3125 C-20.59377942 37.74663937 -23.9876365 35.34292859 -27.8125 31 C-32.41527462 24.68762338 -32.66482892 19.73902418 -32 12 C-29.74420959 5.4700804 -25.08727835 1.1216812 -19 -2 C-12.67374609 -4.31962643 -5.72348132 -3.37797623 0 0 Z " fill="#9D2872" transform="translate(866,397)"/>
<path d="M0 0 C4.68597212 2.64169344 7.40547853 6.00608122 10.0625 10.6875 C11.79204113 17.44843352 11.17702601 23.22998784 7.75 29.375 C4.05647001 33.65171893 0.40120125 36.96764513 -5.30078125 37.84375 C-12.56420779 37.91333972 -17.87422163 37.56059753 -23.25 32.375 C-27.33173525 28.04315842 -28.57362643 24.1805613 -28.75 18.25 C-28.46115663 12.04377078 -26.99118958 8.45475422 -23 3.6875 C-16.16534792 -2.05982107 -8.19659231 -3.68923835 0 0 Z " fill="#94287B" transform="translate(837.25,335.625)"/>
</svg>
